<?xml version="1.0" encoding="UTF-8"?>
<svg width="680" height="200" viewBox="0 0 680 200" xmlns="http://www.w3.org/2000/svg">
  <title>Meridian Capco, Inc. — Logo Revised v4</title>
  <desc>Sphere moved closer to wordmark. Center-justified text. Tagline: Grounded in Vision. Built for Legacy.</desc>

  <circle cx="163" cy="100" r="61" fill="none" stroke="#1A2744" stroke-width="1.5"/>
  <circle cx="163" cy="100" r="52" fill="none" stroke="#1A2744" stroke-width="0.5"/>
  <line x1="102" y1="100" x2="224" y2="100" stroke="#8B7640" stroke-width="1" fill="none"/>
  <line x1="163" y1="39"  x2="163" y2="161" stroke="#8B7640" stroke-width="1" fill="none"/>
  <path d="M163 39 C135 56, 123 76, 123 100 C123 124, 135 144, 163 161" fill="none" stroke="#1A2744" stroke-width="1.8"/>
  <path d="M163 39 C191 56, 203 76, 203 100 C203 124, 191 144, 163 161" fill="none" stroke="#1A2744" stroke-width="1.8"/>
  <path d="M163 39 C177 63, 183 80, 183 100 C183 120, 177 137, 163 161" fill="none" stroke="#8B7640" stroke-width="2.5"/>
  <circle cx="163" cy="39"  r="3.6" fill="#8B7640"/>
  <circle cx="163" cy="161" r="3.6" fill="#8B7640"/>
  <circle cx="163" cy="100" r="3.2" fill="#1A2744"/>

  <text x="438" y="82" text-anchor="middle"
        font-family="Georgia,'Times New Roman',serif"
        font-size="36" font-weight="700" letter-spacing="4"
        fill="#1A2744">MERIDIAN CAPCO</text>

  <line x1="336" y1="102" x2="388" y2="102" stroke="#8B7640" stroke-width="1" fill="none"/>
  <line x1="488" y1="102" x2="540" y2="102" stroke="#8B7640" stroke-width="1" fill="none"/>
  <text x="438" y="106" text-anchor="middle"
        font-family="Georgia,'Times New Roman',serif"
        font-size="11" letter-spacing="7"
        fill="#8B7640">INC</text>

  <line x1="304" y1="124" x2="572" y2="124" stroke="#8B7640" stroke-width="0.5" fill="none"/>

  <text x="438" y="148" text-anchor="middle"
        font-family="Georgia,'Times New Roman',serif"
        font-size="13" letter-spacing="5"
        fill="#8B7640">Grounded in Vision. Built for Legacy.</text>
</svg>
